<svg width="20" height="20" viewBox="0 0 20 20" fill="none" xmlns="http://www.w3.org/2000/svg">
<path d="M17.0708 2.5H13.7441L14.1608 6.66667C14.1608 6.66667 14.9941 7.5 16.2441 7.5C16.9003 7.50087 17.5342 7.26201 18.0266 6.82834C18.0787 6.77969 18.1175 6.71858 18.1393 6.65078C18.1612 6.58298 18.1654 6.51072 18.1516 6.44084L17.5633 2.91667C17.5436 2.80025 17.4834 2.69454 17.3932 2.61828C17.3031 2.54202 17.1889 2.50012 17.0708 2.5Z" stroke="#4589B8" stroke-width="1.5"/>
<path d="M13.7441 2.5L14.1608 6.66667C14.1608 6.66667 13.3275 7.5 12.0775 7.5C10.8275 7.5 9.99414 6.66667 9.99414 6.66667V2.5H13.7441Z" stroke="#4589B8" stroke-width="1.5"/>
<path d="M9.99406 2.5V6.66667C9.99406 6.66667 9.16073 7.5 7.91073 7.5C6.66073 7.5 5.82739 6.66667 5.82739 6.66667L6.24406 2.5H9.99406Z" stroke="#4589B8" stroke-width="1.5"/>
<path d="M6.24413 2.5H2.9183C2.79996 2.49996 2.68545 2.54189 2.59512 2.61833C2.50478 2.69478 2.44449 2.80078 2.42497 2.9175L1.83747 6.44166C1.82374 6.51155 1.82801 6.58379 1.84987 6.65157C1.87174 6.71936 1.91049 6.78047 1.96247 6.82916C2.2358 7.07083 2.84663 7.50083 3.74413 7.50083C4.99413 7.50083 5.82747 6.6675 5.82747 6.6675L6.24413 2.5Z" stroke="#4589B8" stroke-width="1.5"/>
<path d="M2.5 7.5V15.8333C2.5 16.2754 2.67559 16.6993 2.98816 17.0118C3.30072 17.3244 3.72464 17.5 4.16667 17.5H15.8333C16.2754 17.5 16.6993 17.3244 17.0118 17.0118C17.3244 16.6993 17.5 16.2754 17.5 15.8333V7.5" stroke="#4589B8" stroke-width="1.5"/>
<path d="M12.3608 17.4999V12.4999C12.3608 12.0579 12.1852 11.634 11.8727 11.3214C11.5601 11.0088 11.1362 10.8333 10.6942 10.8333H9.02751C8.58548 10.8333 8.16156 11.0088 7.84899 11.3214C7.53643 11.634 7.36084 12.0579 7.36084 12.4999V17.4999" stroke="#4589B8" stroke-width="1.5" stroke-miterlimit="16"/>
</svg>
