<svg width="20" height="20" viewBox="0 0 20 20" fill="none" xmlns="http://www.w3.org/2000/svg">
<path d="M6.875 16.25V18.75M3.125 1.25H10.625C10.9565 1.25 11.2745 1.3817 11.5089 1.61612C11.7433 1.85054 11.875 2.16848 11.875 2.5V18.5938C11.875 18.6352 11.8585 18.6749 11.8292 18.7042C11.7999 18.7335 11.7602 18.75 11.7188 18.75H1.875V2.5C1.875 2.16848 2.0067 1.85054 2.24112 1.61612C2.47554 1.3817 2.79348 1.25 3.125 1.25ZM12.5 7.5H16.875C17.2065 7.5 17.5245 7.6317 17.7589 7.86612C17.9933 8.10054 18.125 8.41848 18.125 8.75V18.75H11.875V8.125C11.875 7.95924 11.9408 7.80027 12.0581 7.68306C12.1753 7.56585 12.3342 7.5 12.5 7.5Z" stroke="#4589B8" stroke-width="1.5" stroke-linecap="round" stroke-linejoin="round"/>
<path d="M3.8313 16.87C3.70185 16.8869 3.57036 16.8629 3.45527 16.8013C3.34018 16.7397 3.24727 16.6435 3.18958 16.5264C3.13189 16.4093 3.11232 16.2771 3.13361 16.1483C3.15491 16.0195 3.21599 15.9006 3.3083 15.8083C3.40061 15.716 3.51951 15.6549 3.6483 15.6336C3.7771 15.6123 3.90933 15.6319 4.02644 15.6896C4.14354 15.7473 4.23965 15.8402 4.30126 15.9553C4.36287 16.0704 4.3869 16.2019 4.36997 16.3313C4.3521 16.4679 4.2896 16.5948 4.19219 16.6922C4.09477 16.7896 3.9679 16.8521 3.8313 16.87ZM3.8313 13.745C3.70185 13.7619 3.57036 13.7379 3.45527 13.6763C3.34018 13.6147 3.24727 13.5185 3.18958 13.4014C3.13189 13.2843 3.11232 13.1521 3.13361 13.0233C3.15491 12.8945 3.21599 12.7756 3.3083 12.6833C3.40061 12.591 3.51951 12.5299 3.6483 12.5086C3.7771 12.4873 3.90933 12.5069 4.02644 12.5646C4.14354 12.6223 4.23965 12.7152 4.30126 12.8303C4.36287 12.9454 4.3869 13.0769 4.36997 13.2063C4.3521 13.3429 4.2896 13.4698 4.19219 13.5672C4.09477 13.6646 3.9679 13.7271 3.8313 13.745ZM3.8313 10.62C3.70185 10.6369 3.57036 10.6129 3.45527 10.5513C3.34018 10.4896 3.24727 10.3935 3.18958 10.2764C3.13189 10.1593 3.11232 10.0271 3.13361 9.89831C3.15491 9.76951 3.21599 9.65062 3.3083 9.55831C3.40061 9.466 3.51951 9.40491 3.6483 9.38362C3.7771 9.36233 3.90933 9.3819 4.02644 9.43959C4.14354 9.49727 4.23965 9.59018 4.30126 9.70527C4.36287 9.82036 4.3869 9.95186 4.36997 10.0813C4.3521 10.2179 4.2896 10.3448 4.19219 10.4422C4.09477 10.5396 3.9679 10.6021 3.8313 10.62ZM3.8313 7.49497C3.70185 7.5119 3.57036 7.48787 3.45527 7.42626C3.34018 7.36465 3.24727 7.26854 3.18958 7.15144C3.13189 7.03433 3.11232 6.9021 3.13361 6.77331C3.15491 6.64451 3.21599 6.52561 3.3083 6.43331C3.40061 6.341 3.51951 6.27991 3.6483 6.25862C3.7771 6.23732 3.90933 6.2569 4.02644 6.31458C4.14354 6.37227 4.23965 6.46518 4.30126 6.58027C4.36287 6.69536 4.3869 6.82686 4.36997 6.9563C4.3521 7.0929 4.2896 7.21977 4.19219 7.31719C4.09477 7.4146 3.9679 7.4771 3.8313 7.49497ZM3.8313 4.36997C3.70185 4.3869 3.57036 4.36287 3.45527 4.30126C3.34018 4.23965 3.24727 4.14354 3.18958 4.02644C3.13189 3.90933 3.11232 3.7771 3.13361 3.6483C3.15491 3.51951 3.21599 3.40061 3.3083 3.3083C3.40061 3.21599 3.51951 3.15491 3.6483 3.13361C3.7771 3.11232 3.90933 3.13189 4.02644 3.18958C4.14354 3.24727 4.23965 3.34018 4.30126 3.45527C4.36287 3.57036 4.3869 3.70185 4.36997 3.8313C4.3521 3.9679 4.2896 4.09477 4.19219 4.19219C4.09477 4.2896 3.9679 4.3521 3.8313 4.36997ZM6.9563 13.745C6.82686 13.7619 6.69536 13.7379 6.58027 13.6763C6.46518 13.6147 6.37227 13.5185 6.31458 13.4014C6.2569 13.2843 6.23732 13.1521 6.25862 13.0233C6.27991 12.8945 6.341 12.7756 6.43331 12.6833C6.52561 12.591 6.64451 12.5299 6.77331 12.5086C6.9021 12.4873 7.03433 12.5069 7.15144 12.5646C7.26855 12.6223 7.36465 12.7152 7.42626 12.8303C7.48787 12.9454 7.5119 13.0769 7.49497 13.2063C7.47711 13.3429 7.41461 13.4698 7.31719 13.5672C7.21977 13.6646 7.0929 13.7271 6.9563 13.745ZM6.9563 10.62C6.82686 10.6369 6.69536 10.6129 6.58027 10.5513C6.46518 10.4896 6.37227 10.3935 6.31458 10.2764C6.2569 10.1593 6.23732 10.0271 6.25862 9.89831C6.27991 9.76951 6.341 9.65062 6.43331 9.55831C6.52561 9.466 6.64451 9.40491 6.77331 9.38362C6.9021 9.36233 7.03433 9.3819 7.15144 9.43959C7.26855 9.49727 7.36465 9.59018 7.42626 9.70527C7.48787 9.82036 7.5119 9.95186 7.49497 10.0813C7.47711 10.2179 7.41461 10.3448 7.31719 10.4422C7.21977 10.5396 7.0929 10.6021 6.9563 10.62ZM6.9563 7.49497C6.82686 7.5119 6.69536 7.48787 6.58027 7.42626C6.46518 7.36465 6.37227 7.26854 6.31458 7.15144C6.2569 7.03433 6.23732 6.9021 6.25862 6.77331C6.27991 6.64451 6.341 6.52561 6.43331 6.43331C6.52561 6.341 6.64451 6.27991 6.77331 6.25862C6.9021 6.23732 7.03433 6.2569 7.15144 6.31458C7.26855 6.37227 7.36465 6.46518 7.42626 6.58027C7.48787 6.69536 7.5119 6.82686 7.49497 6.9563C7.47711 7.0929 7.41461 7.21977 7.31719 7.31719C7.21977 7.4146 7.0929 7.4771 6.9563 7.49497ZM6.9563 4.36997C6.82686 4.3869 6.69536 4.36287 6.58027 4.30126C6.46518 4.23965 6.37227 4.14354 6.31458 4.02644C6.2569 3.90933 6.23732 3.7771 6.25862 3.6483C6.27991 3.51951 6.341 3.40061 6.43331 3.3083C6.52561 3.21599 6.64451 3.15491 6.77331 3.13361C6.9021 3.11232 7.03433 3.13189 7.15144 3.18958C7.26855 3.24727 7.36465 3.34018 7.42626 3.45527C7.48787 3.57036 7.5119 3.70185 7.49497 3.8313C7.47711 3.9679 7.41461 4.09477 7.31719 4.19219C7.21977 4.2896 7.0929 4.3521 6.9563 4.36997ZM10.0813 16.87C9.95186 16.8869 9.82036 16.8629 9.70527 16.8013C9.59018 16.7397 9.49728 16.6435 9.43959 16.5264C9.3819 16.4093 9.36233 16.2771 9.38362 16.1483C9.40491 16.0195 9.466 15.9006 9.55831 15.8083C9.65062 15.716 9.76951 15.6549 9.89831 15.6336C10.0271 15.6123 10.1593 15.6319 10.2764 15.6896C10.3935 15.7473 10.4897 15.8402 10.5513 15.9553C10.6129 16.0704 10.6369 16.2019 10.62 16.3313C10.6021 16.4679 10.5396 16.5948 10.4422 16.6922C10.3448 16.7896 10.2179 16.8521 10.0813 16.87ZM10.0813 13.745C9.95186 13.7619 9.82036 13.7379 9.70527 13.6763C9.59018 13.6147 9.49728 13.5185 9.43959 13.4014C9.3819 13.2843 9.36233 13.1521 9.38362 13.0233C9.40491 12.8945 9.466 12.7756 9.55831 12.6833C9.65062 12.591 9.76951 12.5299 9.89831 12.5086C10.0271 12.4873 10.1593 12.5069 10.2764 12.5646C10.3935 12.6223 10.4897 12.7152 10.5513 12.8303C10.6129 12.9454 10.6369 13.0769 10.62 13.2063C10.6021 13.3429 10.5396 13.4698 10.4422 13.5672C10.3448 13.6646 10.2179 13.7271 10.0813 13.745ZM10.0813 10.62C9.95186 10.6369 9.82036 10.6129 9.70527 10.5513C9.59018 10.4896 9.49728 10.3935 9.43959 10.2764C9.3819 10.1593 9.36233 10.0271 9.38362 9.89831C9.40491 9.76951 9.466 9.65062 9.55831 9.55831C9.65062 9.466 9.76951 9.40491 9.89831 9.38362C10.0271 9.36233 10.1593 9.3819 10.2764 9.43959C10.3935 9.49727 10.4897 9.59018 10.5513 9.70527C10.6129 9.82036 10.6369 9.95186 10.62 10.0813C10.6021 10.2179 10.5396 10.3448 10.4422 10.4422C10.3448 10.5396 10.2179 10.6021 10.0813 10.62Z" fill="#4589B8"/>
<path d="M10.4428 7.31754C10.6861 7.07422 10.6851 6.67874 10.4406 6.43421C10.1961 6.18967 9.80058 6.18868 9.55726 6.432C9.31394 6.67531 9.31493 7.07079 9.55947 7.31533C9.804 7.55986 10.1995 7.56085 10.4428 7.31754Z" fill="#4589B8"/>
<path d="M10.0813 4.36997C9.95185 4.3869 9.82036 4.36287 9.70527 4.30126C9.59018 4.23965 9.49727 4.14354 9.43958 4.02644C9.38189 3.90933 9.36232 3.7771 9.38361 3.6483C9.40491 3.51951 9.46599 3.40061 9.5583 3.3083C9.65061 3.21599 9.76951 3.15491 9.8983 3.13361C10.0271 3.11232 10.1593 3.13189 10.2764 3.18958C10.3935 3.24727 10.4896 3.34018 10.5513 3.45527C10.6129 3.57036 10.6369 3.70185 10.62 3.8313C10.6021 3.9679 10.5396 4.09477 10.4422 4.19219C10.3448 4.2896 10.2179 4.3521 10.0813 4.36997ZM15.625 15.625C15.5014 15.625 15.3806 15.6617 15.2778 15.7304C15.175 15.7991 15.0949 15.8967 15.0476 16.0109C15.0003 16.1251 14.9879 16.2507 15.0121 16.372C15.0362 16.4932 15.0957 16.6046 15.1831 16.692C15.2705 16.7794 15.3819 16.8389 15.5031 16.863C15.6244 16.8872 15.75 16.8748 15.8642 16.8275C15.9784 16.7802 16.076 16.7001 16.1447 16.5973C16.2134 16.4945 16.25 16.3737 16.25 16.25C16.25 16.0843 16.1842 15.9253 16.067 15.8081C15.9498 15.6909 15.7908 15.625 15.625 15.625ZM15.625 12.5C15.5014 12.5 15.3806 12.5367 15.2778 12.6054C15.175 12.6741 15.0949 12.7717 15.0476 12.8859C15.0003 13.0001 14.9879 13.1257 15.0121 13.247C15.0362 13.3682 15.0957 13.4796 15.1831 13.567C15.2705 13.6544 15.3819 13.7139 15.5031 13.738C15.6244 13.7622 15.75 13.7498 15.8642 13.7025C15.9784 13.6552 16.076 13.5751 16.1447 13.4723C16.2134 13.3695 16.25 13.2487 16.25 13.125C16.25 12.9593 16.1842 12.8003 16.067 12.6831C15.9498 12.5659 15.7908 12.5 15.625 12.5ZM15.625 9.37505C15.5014 9.37505 15.3806 9.4117 15.2778 9.48038C15.175 9.54905 15.0949 9.64667 15.0476 9.76087C15.0003 9.87507 14.9879 10.0007 15.0121 10.122C15.0362 10.2432 15.0957 10.3546 15.1831 10.442C15.2705 10.5294 15.3819 10.5889 15.5031 10.613C15.6244 10.6372 15.75 10.6248 15.8642 10.5775C15.9784 10.5302 16.076 10.4501 16.1447 10.3473C16.2134 10.2445 16.25 10.1237 16.25 10C16.25 9.83429 16.1842 9.67531 16.067 9.5581C15.9498 9.44089 15.7908 9.37505 15.625 9.37505ZM13.125 15.625C13.0014 15.625 12.8806 15.6617 12.7778 15.7304C12.675 15.7991 12.5949 15.8967 12.5476 16.0109C12.5003 16.1251 12.4879 16.2507 12.5121 16.372C12.5362 16.4932 12.5957 16.6046 12.6831 16.692C12.7705 16.7794 12.8819 16.8389 13.0031 16.863C13.1244 16.8872 13.25 16.8748 13.3642 16.8275C13.4784 16.7802 13.576 16.7001 13.6447 16.5973C13.7134 16.4945 13.75 16.3737 13.75 16.25C13.75 16.0843 13.6842 15.9253 13.567 15.8081C13.4498 15.6909 13.2908 15.625 13.125 15.625ZM13.125 12.5C13.0014 12.5 12.8806 12.5367 12.7778 12.6054C12.675 12.6741 12.5949 12.7717 12.5476 12.8859C12.5003 13.0001 12.4879 13.1257 12.5121 13.247C12.5362 13.3682 12.5957 13.4796 12.6831 13.567C12.7705 13.6544 12.8819 13.7139 13.0031 13.738C13.1244 13.7622 13.25 13.7498 13.3642 13.7025C13.4784 13.6552 13.576 13.5751 13.6447 13.4723C13.7134 13.3695 13.75 13.2487 13.75 13.125C13.75 12.9593 13.6842 12.8003 13.567 12.6831C13.4498 12.5659 13.2908 12.5 13.125 12.5ZM13.125 9.37505C13.0014 9.37505 12.8806 9.4117 12.7778 9.48038C12.675 9.54905 12.5949 9.64667 12.5476 9.76087C12.5003 9.87507 12.4879 10.0007 12.5121 10.122C12.5362 10.2432 12.5957 10.3546 12.6831 10.442C12.7705 10.5294 12.8819 10.5889 13.0031 10.613C13.1244 10.6372 13.25 10.6248 13.3642 10.5775C13.4784 10.5302 13.576 10.4501 13.6447 10.3473C13.7134 10.2445 13.75 10.1237 13.75 10C13.75 9.83429 13.6842 9.67531 13.567 9.5581C13.4498 9.44089 13.2908 9.37505 13.125 9.37505Z" fill="#4589B8"/>
</svg>
