<svg width="18" height="18" viewBox="0 0 18 18" fill="none" xmlns="http://www.w3.org/2000/svg">
<g clip-path="url(#clip0_77_405)">
<path d="M2.76923 0C1.24269 0 0 1.24269 0 2.76923V15.2308C0 16.7573 1.24269 18 2.76923 18H11.7692C12.5052 18 13.527 16.9373 14.7115 15.7285C14.8777 15.5596 15.0369 15.4011 15.2093 15.2308C15.3796 15.0591 15.5596 14.8777 15.7285 14.7115C16.938 13.5263 18 12.5052 18 11.7692V2.76923C18 1.24269 16.7573 0 15.2308 0H2.76923ZM2.76923 1.38462H15.2308C15.598 1.38462 15.9502 1.53049 16.2098 1.79016C16.4695 2.04983 16.6154 2.40201 16.6154 2.76923V11.7692C16.6154 12.4581 15.9217 12.4615 15.2308 12.4615H13.1538C12.7724 12.4615 12.4615 12.7724 12.4615 13.1538V15.2744C12.4615 15.8885 12.4629 16.488 11.9638 16.6154H2.76923C2.40201 16.6154 2.04983 16.4695 1.79016 16.2098C1.53049 15.9502 1.38462 15.598 1.38462 15.2308V2.76923C1.38462 2.40201 1.53049 2.04983 1.79016 1.79016C2.04983 1.53049 2.40201 1.38462 2.76923 1.38462ZM4.71669 5.53846C4.53308 5.55563 4.36381 5.64503 4.24612 5.78701C4.12842 5.92898 4.07195 6.11189 4.08912 6.2955C4.10628 6.47911 4.19569 6.64838 4.33766 6.76608C4.47963 6.88377 4.66254 6.94024 4.84615 6.92308H13.1538C13.3375 6.92308 13.5135 6.85014 13.6434 6.7203C13.7732 6.59047 13.8462 6.41438 13.8462 6.23077C13.8462 6.04716 13.7732 5.87107 13.6434 5.74123C13.5135 5.6114 13.3375 5.53846 13.1538 5.53846H4.84615C4.82447 5.53744 4.80276 5.53744 4.78108 5.53846C4.75963 5.53746 4.73814 5.53746 4.71669 5.53846ZM4.71669 9C4.62578 9.0085 4.53743 9.03482 4.45668 9.07747C4.37594 9.12011 4.30439 9.17825 4.24612 9.24854C4.12842 9.39052 4.07195 9.57343 4.08912 9.75704C4.10628 9.94065 4.19569 10.1099 4.33766 10.2276C4.47963 10.3453 4.66254 10.4018 4.84615 10.3846H11.7692C11.9528 10.3846 12.1289 10.3117 12.2588 10.1818C12.3886 10.052 12.4615 9.87592 12.4615 9.69231C12.4615 9.5087 12.3886 9.33261 12.2588 9.20277C12.1289 9.07294 11.9528 9 11.7692 9H4.84615C4.82447 8.99898 4.80276 8.99898 4.78108 9C4.75963 8.999 4.73814 8.999 4.71669 9Z" fill="#4589B8"/>
</g>
<defs>
<clipPath id="clip0_77_405">
<rect width="18" height="18" fill="white"/>
</clipPath>
</defs>
</svg>
