<svg width="20" height="20" viewBox="0 0 20 20" fill="none" xmlns="http://www.w3.org/2000/svg">
<path d="M13.8084 18.3335C14.0298 18.3347 14.2491 18.2919 14.4537 18.2075C14.6583 18.1231 14.8441 17.9988 15.0001 17.8418L17.2584 15.5835C17.4137 15.4273 17.5008 15.2161 17.5008 14.996C17.5008 14.7758 17.4137 14.5646 17.2584 14.4085L13.9251 11.0751C13.769 10.9199 13.5578 10.8328 13.3376 10.8328C13.1175 10.8328 12.9062 10.9199 12.7501 11.0751L11.4168 12.4001C10.4937 12.154 9.6387 11.7009 8.91678 11.0751C8.29271 10.352 7.8398 9.4975 7.59178 8.57512L8.91678 7.24178C9.07199 7.08565 9.1591 6.87444 9.1591 6.65428C9.1591 6.43413 9.07199 6.22292 8.91678 6.06678L5.58344 2.73345C5.42731 2.57824 5.2161 2.49112 4.99594 2.49112C4.77579 2.49112 4.56458 2.57824 4.40844 2.73345L2.15844 5.00012C2.00147 5.15615 1.87715 5.34189 1.79273 5.54649C1.70832 5.75109 1.6655 5.97046 1.66678 6.19178C1.74238 9.39369 3.02184 12.4495 5.25011 14.7501C7.55071 16.9784 10.6065 18.2578 13.8084 18.3335ZM5.00011 4.50845L7.15844 6.66678L6.08344 7.74178C5.98163 7.83716 5.90538 7.95657 5.8617 8.08906C5.81802 8.22155 5.80831 8.36289 5.83344 8.50012C6.14492 9.89209 6.80437 11.1823 7.75011 12.2501C8.81707 13.1971 10.1076 13.8567 11.5001 14.1668C11.6353 14.195 11.7753 14.1893 11.9077 14.15C12.04 14.1107 12.1606 14.0392 12.2584 13.9418L13.3334 12.8418L15.4918 15.0001L13.8251 16.6668C11.0616 16.5956 8.4247 15.4927 6.43344 13.5751C4.51087 11.583 3.40478 8.94271 3.33344 6.17512L5.00011 4.50845ZM16.6668 9.16678H18.3334C18.3551 8.17595 18.1758 7.191 17.8066 6.27129C17.4373 5.35158 16.8857 4.51616 16.1849 3.81536C15.4841 3.11457 14.6486 2.56292 13.7289 2.19366C12.8092 1.8244 11.8243 1.64518 10.8334 1.66678V3.33345C11.6067 3.3067 12.3772 3.43929 13.097 3.72298C13.8169 4.00667 14.4706 4.43538 15.0177 4.98248C15.5648 5.52959 15.9936 6.18337 16.2772 6.90321C16.5609 7.62304 16.6935 8.39353 16.6668 9.16678Z" fill="#4589B8"/>
<path d="M10.8333 6.66667C12.5833 6.66667 13.3333 7.41667 13.3333 9.16667H14.9999C14.9999 6.48333 13.5166 5 10.8333 5V6.66667Z" fill="#4589B8"/>
</svg>
