<svg width="25" height="26" viewBox="0 0 25 26" fill="none" xmlns="http://www.w3.org/2000/svg">
<path d="M13.7522 18.0015H6.25365C5.9222 18.0015 5.60432 18.1332 5.36994 18.3675C5.13557 18.6019 5.0039 18.9198 5.0039 19.2512C5.0039 19.5827 5.13557 19.9006 5.36994 20.135C5.60432 20.3693 5.9222 20.501 6.25365 20.501H13.7522C14.0836 20.501 14.4015 20.3693 14.6359 20.135C14.8702 19.9006 15.0019 19.5827 15.0019 19.2512C15.0019 18.9198 14.8702 18.6019 14.6359 18.3675C14.4015 18.1332 14.0836 18.0015 13.7522 18.0015ZM8.75315 10.503H11.2527C11.5841 10.503 11.902 10.3713 12.1364 10.1369C12.3707 9.90256 12.5024 9.58468 12.5024 9.25323C12.5024 8.92177 12.3707 8.6039 12.1364 8.36952C11.902 8.13515 11.5841 8.00348 11.2527 8.00348H8.75315C8.4217 8.00348 8.10382 8.13515 7.86945 8.36952C7.63507 8.6039 7.5034 8.92177 7.5034 9.25323C7.5034 9.58468 7.63507 9.90256 7.86945 10.1369C8.10382 10.3713 8.4217 10.503 8.75315 10.503ZM23.7502 13.0025H20.0009V1.75472C20.0018 1.5345 19.9445 1.31796 19.8347 1.12703C19.725 0.936092 19.5668 0.777544 19.376 0.667435C19.1861 0.557746 18.9705 0.5 18.7512 0.5C18.5318 0.5 18.3163 0.557746 18.1263 0.667435L14.377 2.81701L10.6278 0.667435C10.4378 0.557746 10.2223 0.5 10.0029 0.5C9.78353 0.5 9.56802 0.557746 9.37803 0.667435L5.62878 2.81701L1.87952 0.667435C1.68953 0.557746 1.47402 0.5 1.25464 0.5C1.03527 0.5 0.819755 0.557746 0.629768 0.667435C0.439051 0.777544 0.280815 0.936092 0.171082 1.12703C0.0613501 1.31796 0.00401838 1.5345 0.00489266 1.75472V21.7507C0.00489266 22.7451 0.399902 23.6987 1.10302 24.4019C1.80615 25.105 2.75978 25.5 3.75415 25.5H21.2507C22.245 25.5 23.1987 25.105 23.9018 24.4019C24.6049 23.6987 24.9999 22.7451 24.9999 21.7507V14.2522C24.9999 13.9208 24.8683 13.6029 24.6339 13.3685C24.3995 13.1342 24.0816 13.0025 23.7502 13.0025ZM3.75415 23.0005C3.42269 23.0005 3.10481 22.8688 2.87044 22.6345C2.63607 22.4001 2.5044 22.0822 2.5044 21.7507V3.91679L5.0039 5.34151C5.19678 5.44225 5.41117 5.49487 5.62878 5.49487C5.84638 5.49487 6.06077 5.44225 6.25365 5.34151L10.0029 3.19193L13.7522 5.34151C13.945 5.44225 14.1594 5.49487 14.377 5.49487C14.5946 5.49487 14.809 5.44225 15.0019 5.34151L17.5014 3.91679V21.7507C17.5048 22.1771 17.5809 22.5997 17.7264 23.0005H3.75415ZM22.5004 21.7507C22.5004 22.0822 22.3688 22.4001 22.1344 22.6345C21.9 22.8688 21.5821 23.0005 21.2507 23.0005C20.9192 23.0005 20.6013 22.8688 20.367 22.6345C20.1326 22.4001 20.0009 22.0822 20.0009 21.7507V15.502H22.5004V21.7507ZM13.7522 13.0025H6.25365C5.9222 13.0025 5.60432 13.1342 5.36994 13.3685C5.13557 13.6029 5.0039 13.9208 5.0039 14.2522C5.0039 14.5837 5.13557 14.9016 5.36994 15.1359C5.60432 15.3703 5.9222 15.502 6.25365 15.502H13.7522C14.0836 15.502 14.4015 15.3703 14.6359 15.1359C14.8702 14.9016 15.0019 14.5837 15.0019 14.2522C15.0019 13.9208 14.8702 13.6029 14.6359 13.3685C14.4015 13.1342 14.0836 13.0025 13.7522 13.0025Z" fill="#4589B8"/>
</svg>
