<svg width="31" height="30" viewBox="0 0 31 30" fill="none" xmlns="http://www.w3.org/2000/svg">
<path d="M26.7706 20.0001V10.0001C26.7702 9.56172 26.6545 9.13113 26.4351 8.75158C26.2157 8.37202 25.9003 8.05683 25.5206 7.83762L16.7706 2.83762C16.3906 2.6182 15.9595 2.50269 15.5206 2.50269C15.0818 2.50269 14.6507 2.6182 14.2706 2.83762L5.52063 7.83762C5.14096 8.05683 4.82561 8.37202 4.60621 8.75158C4.38681 9.13113 4.27108 9.56172 4.27063 10.0001V20.0001C4.27108 20.4385 4.38681 20.8691 4.60621 21.2487C4.82561 21.6282 5.14096 21.9434 5.52063 22.1626L14.2706 27.1626C14.6507 27.382 15.0818 27.4976 15.5206 27.4976C15.9595 27.4976 16.3906 27.382 16.7706 27.1626L25.5206 22.1626C25.9003 21.9434 26.2157 21.6282 26.4351 21.2487C26.6545 20.8691 26.7702 20.4385 26.7706 20.0001Z" stroke="#4589B8" stroke-width="2.5" stroke-linecap="round" stroke-linejoin="round"/>
<path d="M4.60815 8.69995L15.5207 15.0125L26.4331 8.69995" stroke="#4589B8" stroke-width="2.5" stroke-linecap="round" stroke-linejoin="round"/>
<path d="M15.5206 27.6V15" stroke="#4589B8" stroke-width="2.5" stroke-linecap="round" stroke-linejoin="round"/>
</svg>
