<svg width="31" height="30" viewBox="0 0 31 30" fill="none" xmlns="http://www.w3.org/2000/svg">
<path d="M26.7708 20.0001V10.0001C26.7703 9.56172 26.6546 9.13113 26.4352 8.75158C26.2158 8.37202 25.9004 8.05683 25.5208 7.83762L16.7708 2.83762C16.3907 2.6182 15.9596 2.50269 15.5208 2.50269C15.0819 2.50269 14.6508 2.6182 14.2708 2.83762L5.52075 7.83762C5.14108 8.05683 4.82573 8.37202 4.60633 8.75158C4.38693 9.13113 4.2712 9.56172 4.27075 10.0001V20.0001C4.2712 20.4385 4.38693 20.8691 4.60633 21.2487C4.82573 21.6282 5.14108 21.9434 5.52075 22.1626L14.2708 27.1626C14.6508 27.382 15.0819 27.4976 15.5208 27.4976C15.9596 27.4976 16.3907 27.382 16.7708 27.1626L25.5208 22.1626C25.9004 21.9434 26.2158 21.6282 26.4352 21.2487C26.6546 20.8691 26.7703 20.4385 26.7708 20.0001Z" stroke="#9FCEEE" stroke-width="2.5" stroke-linecap="round" stroke-linejoin="round"/>
<path d="M4.60815 8.69995L15.5207 15.0125L26.4331 8.69995" stroke="#9FCEEE" stroke-width="2.5" stroke-linecap="round" stroke-linejoin="round"/>
<path d="M15.5208 27.6V15" stroke="#9FCEEE" stroke-width="2.5" stroke-linecap="round" stroke-linejoin="round"/>
</svg>
