<svg width="23" height="25" viewBox="0 0 23 25" fill="none" xmlns="http://www.w3.org/2000/svg">
<path d="M21.2247 7.52092L13.7337 0.953774C13.047 0.339565 12.158 0 11.2367 0C10.3154 0 9.42637 0.339565 8.73966 0.953774L1.24862 7.52092C0.85206 7.87558 0.535603 8.31067 0.320325 8.79719C0.105048 9.28372 -0.00411078 9.81053 0.000118351 10.3425V21.2545C0.000118351 22.2479 0.394735 23.2005 1.09716 23.903C1.79958 24.6054 2.75226 25 3.74564 25H18.7277C19.7211 25 20.6738 24.6054 21.3762 23.903C22.0786 23.2005 22.4732 22.2479 22.4732 21.2545V10.3301C22.4757 9.80014 22.3657 9.27574 22.1505 8.7915C21.9352 8.30725 21.6197 7.87419 21.2247 7.52092ZM13.7337 22.503H8.73966V16.2605C8.73966 15.9293 8.8712 15.6118 9.10534 15.3776C9.33948 15.1435 9.65705 15.012 9.98817 15.012H12.4852C12.8163 15.012 13.1339 15.1435 13.368 15.3776C13.6021 15.6118 13.7337 15.9293 13.7337 16.2605V22.503ZM19.9762 21.2545C19.9762 21.5856 19.8447 21.9032 19.6105 22.1373C19.3764 22.3714 19.0588 22.503 18.7277 22.503H16.2307V16.2605C16.2307 15.2671 15.8361 14.3144 15.1337 13.612C14.4312 12.9096 13.4786 12.5149 12.4852 12.5149H9.98817C8.9948 12.5149 8.04211 12.9096 7.33969 13.612C6.63727 14.3144 6.24265 15.2671 6.24265 16.2605V22.503H3.74564C3.41451 22.503 3.09695 22.3714 2.86281 22.1373C2.62867 21.9032 2.49713 21.5856 2.49713 21.2545V10.3301C2.49736 10.1528 2.53533 9.9776 2.60852 9.81614C2.68171 9.65469 2.78845 9.51067 2.92162 9.39367L10.4127 2.83902C10.6405 2.63886 10.9334 2.52847 11.2367 2.52847C11.5399 2.52847 11.8329 2.63886 12.0607 2.83902L19.5517 9.39367C19.6849 9.51067 19.7916 9.65469 19.8648 9.81614C19.938 9.9776 19.976 10.1528 19.9762 10.3301V21.2545Z" fill="#4589B8"/>
</svg>