<svg width="22" height="26" viewBox="0 0 22 26" fill="none" xmlns="http://www.w3.org/2000/svg">
<mask id="path-1-outside-1_128_5" maskUnits="userSpaceOnUse" x="-0.0424805" y="-0.5" width="22" height="27" fill="black">
<rect fill="white" x="-0.0424805" y="-0.5" width="22" height="27"/>
<path d="M15.186 6.80813C15.186 7.0413 15.1701 7.27447 15.1409 7.50499C15.1542 7.41225 15.1674 7.31686 15.178 7.22413C15.1144 7.68517 14.9926 8.13296 14.815 8.5622C14.8495 8.47741 14.8866 8.39262 14.921 8.30784C14.7435 8.72648 14.5156 9.11863 14.2374 9.47898L14.4043 9.26436C14.1288 9.61942 13.8082 9.94003 13.4531 10.2156L13.6677 10.0487C13.3074 10.3242 12.9152 10.5547 12.4966 10.7323C12.5814 10.6978 12.6662 10.6607 12.7509 10.6263C12.3217 10.8038 11.8739 10.9257 11.4129 10.9893C11.5056 10.976 11.601 10.9628 11.6937 10.9522C11.23 11.0131 10.7637 11.0131 10.3 10.9522C10.3927 10.9654 10.4881 10.9787 10.5809 10.9893C10.1198 10.9257 9.67204 10.8038 9.2428 10.6263C9.32759 10.6607 9.41238 10.6978 9.49716 10.7323C9.07852 10.5547 8.68637 10.3269 8.32601 10.0487L8.54064 10.2156C8.18558 9.94003 7.86497 9.61942 7.58941 9.26436L7.75634 9.47898C7.48077 9.11863 7.25025 8.72648 7.07273 8.30784C7.10717 8.39262 7.14427 8.47741 7.17871 8.5622C7.00118 8.13296 6.8793 7.68517 6.81571 7.22413C6.82896 7.31686 6.84221 7.41225 6.8528 7.50499C6.79186 7.0413 6.79186 6.57496 6.8528 6.11127C6.83956 6.20401 6.82631 6.29939 6.81571 6.39213C6.8793 5.93109 7.00118 5.4833 7.17871 5.05405C7.14427 5.13884 7.10717 5.22363 7.07273 5.30842C7.25025 4.88978 7.47812 4.49763 7.75634 4.13727L7.58941 4.35189C7.86497 3.99684 8.18558 3.67623 8.54064 3.40067L8.32601 3.5676C8.68637 3.29203 9.07852 3.06151 9.49716 2.88398C9.41238 2.91843 9.32759 2.95552 9.2428 2.98997C9.67204 2.81244 10.1198 2.69056 10.5809 2.62697C10.4881 2.64022 10.3927 2.65346 10.3 2.66406C10.7637 2.60312 11.23 2.60312 11.6937 2.66406C11.601 2.65081 11.5056 2.63757 11.4129 2.62697C11.8739 2.69056 12.3217 2.81244 12.7509 2.98997C12.6662 2.95552 12.5814 2.91843 12.4966 2.88398C12.9152 3.06151 13.3074 3.28938 13.6677 3.5676L13.4531 3.40067C13.8082 3.67623 14.1288 3.99684 14.4043 4.35189L14.2374 4.13727C14.513 4.49763 14.7435 4.88978 14.921 5.30842C14.8866 5.22363 14.8495 5.13884 14.815 5.05405C14.9926 5.4833 15.1144 5.93109 15.178 6.39213C15.1648 6.29939 15.1515 6.20401 15.1409 6.11127C15.1701 6.34179 15.1833 6.57496 15.186 6.80813C15.1886 7.36191 15.6709 7.89449 16.2458 7.86799C16.8182 7.8415 17.3084 7.40165 17.3057 6.80813C17.3004 5.53894 16.9189 4.24061 16.1717 3.20724C15.9703 2.92903 15.7557 2.65611 15.5172 2.40969C15.2761 2.16063 15.0111 1.946 14.7355 1.73668C14.2348 1.35513 13.6757 1.07427 13.0822 0.856995C10.6895 -0.0200424 7.80403 0.761607 6.18509 2.73295C5.96252 3.00322 5.75055 3.28408 5.57037 3.58614C5.39019 3.88556 5.24976 4.20351 5.11993 4.52677C4.87616 5.1256 4.75162 5.76151 4.70128 6.40538C4.60324 7.66662 4.9318 8.9835 5.58892 10.0646C6.22219 11.1085 7.17871 12.0041 8.29687 12.5102C8.62543 12.6586 8.96193 12.7964 9.31169 12.8944C9.65879 12.9898 10.0112 13.0428 10.3689 13.0852C11.0207 13.162 11.6858 13.109 12.3296 12.9792C14.7753 12.481 16.8235 10.3746 17.2024 7.90244C17.258 7.54208 17.3004 7.18173 17.3004 6.81608C17.3031 6.2623 16.8102 5.72972 16.2405 5.75621C15.6682 5.77476 15.186 6.2146 15.186 6.80813ZM18.7021 23.3764H5.10668C4.50521 23.3764 3.90373 23.3817 3.30226 23.3764C3.23602 23.3764 3.16978 23.3711 3.10619 23.3632C3.19892 23.3764 3.29431 23.3897 3.38705 23.4003C3.28106 23.3844 3.18038 23.3552 3.08234 23.3155C3.16713 23.3499 3.25192 23.387 3.33671 23.4215C3.23072 23.3764 3.13268 23.3182 3.03994 23.2466L3.25457 23.4135C3.17508 23.3473 3.10089 23.2758 3.03729 23.1963L3.20422 23.4109C3.13268 23.3182 3.07704 23.2201 3.02935 23.1141C3.06379 23.1989 3.10089 23.2837 3.13533 23.3685C3.09559 23.2705 3.06909 23.1671 3.05054 23.0638C3.06379 23.1565 3.07704 23.2519 3.08764 23.3447C3.04524 23.024 3.07439 22.6849 3.07439 22.3616V21.2276C3.07439 20.9441 3.09029 20.6632 3.12738 20.3823C3.11413 20.4751 3.10089 20.5705 3.09029 20.6632C3.16448 20.12 3.30756 19.5874 3.52218 19.0813C3.48774 19.1661 3.45064 19.2509 3.4162 19.3357C3.62287 18.8535 3.88784 18.4004 4.20844 17.9844L4.04152 18.199C4.36212 17.7883 4.73043 17.4174 5.14377 17.0968L4.92915 17.2637C5.34515 16.9431 5.79824 16.6781 6.28048 16.4714C6.19569 16.5059 6.1109 16.543 6.02611 16.5774C6.5322 16.3654 7.06213 16.2197 7.60796 16.1455C7.51522 16.1588 7.41983 16.172 7.32709 16.1826C7.71924 16.1323 8.10874 16.1296 8.50354 16.1296H13.3524C13.7896 16.1296 14.2242 16.127 14.6613 16.1826C14.5686 16.1694 14.4732 16.1561 14.3805 16.1455C14.9237 16.2197 15.4562 16.3628 15.9623 16.5774C15.8775 16.543 15.7928 16.5059 15.708 16.4714C16.1902 16.6781 16.6433 16.9431 17.0593 17.2637L16.8447 17.0968C17.2554 17.4174 17.6263 17.7857 17.9469 18.199L17.78 17.9844C18.1006 18.4004 18.3656 18.8535 18.5722 19.3357C18.5378 19.2509 18.5007 19.1661 18.4663 19.0813C18.6782 19.5874 18.824 20.1174 18.8982 20.6632C18.8849 20.5705 18.8717 20.4751 18.8611 20.3823C18.9114 20.7824 18.9141 21.1799 18.9141 21.5826V22.8942C18.9141 23.0452 18.9194 23.1963 18.9008 23.3447C18.9141 23.2519 18.9273 23.1565 18.9379 23.0638C18.922 23.1698 18.8929 23.2705 18.8531 23.3685C18.8876 23.2837 18.9247 23.1989 18.9591 23.1141C18.9141 23.2201 18.8558 23.3182 18.7842 23.4109L18.9511 23.1963C18.8849 23.2758 18.8134 23.3499 18.7339 23.4135L18.9485 23.2466C18.8558 23.3182 18.7577 23.3738 18.6517 23.4215C18.7365 23.387 18.8213 23.3499 18.9061 23.3155C18.8081 23.3552 18.7047 23.3817 18.6014 23.4003C18.6941 23.387 18.7895 23.3738 18.8823 23.3632C18.824 23.3711 18.763 23.3738 18.7021 23.3764C18.4292 23.3791 18.1483 23.493 17.9522 23.6865C17.7694 23.8693 17.629 24.1713 17.6422 24.4363C17.6687 25.0033 18.1086 25.5041 18.7021 25.4962C19.7328 25.4803 20.639 24.8073 20.941 23.8189C21.0603 23.4268 21.0338 23.0055 21.0338 22.6027C21.0338 21.6807 21.0629 20.7665 20.9039 19.8524C20.6708 18.5143 19.9978 17.2557 19.0757 16.2674C18.1536 15.2791 16.9136 14.5531 15.602 14.2298C14.8495 14.0443 14.0917 14.0152 13.3233 14.0152H8.62278C7.83583 14.0152 7.05418 14.0523 6.28843 14.2563C4.98744 14.6008 3.7633 15.3347 2.85977 16.331C1.94828 17.3352 1.28852 18.5965 1.0739 19.9425C0.930816 20.846 0.959962 21.7522 0.959962 22.6637C0.959962 23.0823 0.936115 23.5195 1.08715 23.9196C1.28322 24.4337 1.59588 24.8391 2.05427 25.1438C2.41198 25.3796 2.86507 25.4935 3.28901 25.4988C3.49569 25.5015 3.70236 25.4988 3.90903 25.4988H18.7047C19.2585 25.4988 19.7911 25.0113 19.7646 24.439C19.7381 23.8613 19.2983 23.3764 18.7021 23.3764Z"/>
</mask>
<path d="M15.186 6.80813C15.186 7.0413 15.1701 7.27447 15.1409 7.50499C15.1542 7.41225 15.1674 7.31686 15.178 7.22413C15.1144 7.68517 14.9926 8.13296 14.815 8.5622C14.8495 8.47741 14.8866 8.39262 14.921 8.30784C14.7435 8.72648 14.5156 9.11863 14.2374 9.47898L14.4043 9.26436C14.1288 9.61942 13.8082 9.94003 13.4531 10.2156L13.6677 10.0487C13.3074 10.3242 12.9152 10.5547 12.4966 10.7323C12.5814 10.6978 12.6662 10.6607 12.7509 10.6263C12.3217 10.8038 11.8739 10.9257 11.4129 10.9893C11.5056 10.976 11.601 10.9628 11.6937 10.9522C11.23 11.0131 10.7637 11.0131 10.3 10.9522C10.3927 10.9654 10.4881 10.9787 10.5809 10.9893C10.1198 10.9257 9.67204 10.8038 9.2428 10.6263C9.32759 10.6607 9.41238 10.6978 9.49716 10.7323C9.07852 10.5547 8.68637 10.3269 8.32601 10.0487L8.54064 10.2156C8.18558 9.94003 7.86497 9.61942 7.58941 9.26436L7.75634 9.47898C7.48077 9.11863 7.25025 8.72648 7.07273 8.30784C7.10717 8.39262 7.14427 8.47741 7.17871 8.5622C7.00118 8.13296 6.8793 7.68517 6.81571 7.22413C6.82896 7.31686 6.84221 7.41225 6.8528 7.50499C6.79186 7.0413 6.79186 6.57496 6.8528 6.11127C6.83956 6.20401 6.82631 6.29939 6.81571 6.39213C6.8793 5.93109 7.00118 5.4833 7.17871 5.05405C7.14427 5.13884 7.10717 5.22363 7.07273 5.30842C7.25025 4.88978 7.47812 4.49763 7.75634 4.13727L7.58941 4.35189C7.86497 3.99684 8.18558 3.67623 8.54064 3.40067L8.32601 3.5676C8.68637 3.29203 9.07852 3.06151 9.49716 2.88398C9.41238 2.91843 9.32759 2.95552 9.2428 2.98997C9.67204 2.81244 10.1198 2.69056 10.5809 2.62697C10.4881 2.64022 10.3927 2.65346 10.3 2.66406C10.7637 2.60312 11.23 2.60312 11.6937 2.66406C11.601 2.65081 11.5056 2.63757 11.4129 2.62697C11.8739 2.69056 12.3217 2.81244 12.7509 2.98997C12.6662 2.95552 12.5814 2.91843 12.4966 2.88398C12.9152 3.06151 13.3074 3.28938 13.6677 3.5676L13.4531 3.40067C13.8082 3.67623 14.1288 3.99684 14.4043 4.35189L14.2374 4.13727C14.513 4.49763 14.7435 4.88978 14.921 5.30842C14.8866 5.22363 14.8495 5.13884 14.815 5.05405C14.9926 5.4833 15.1144 5.93109 15.178 6.39213C15.1648 6.29939 15.1515 6.20401 15.1409 6.11127C15.1701 6.34179 15.1833 6.57496 15.186 6.80813C15.1886 7.36191 15.6709 7.89449 16.2458 7.86799C16.8182 7.8415 17.3084 7.40165 17.3057 6.80813C17.3004 5.53894 16.9189 4.24061 16.1717 3.20724C15.9703 2.92903 15.7557 2.65611 15.5172 2.40969C15.2761 2.16063 15.0111 1.946 14.7355 1.73668C14.2348 1.35513 13.6757 1.07427 13.0822 0.856995C10.6895 -0.0200424 7.80403 0.761607 6.18509 2.73295C5.96252 3.00322 5.75055 3.28408 5.57037 3.58614C5.39019 3.88556 5.24976 4.20351 5.11993 4.52677C4.87616 5.1256 4.75162 5.76151 4.70128 6.40538C4.60324 7.66662 4.9318 8.9835 5.58892 10.0646C6.22219 11.1085 7.17871 12.0041 8.29687 12.5102C8.62543 12.6586 8.96193 12.7964 9.31169 12.8944C9.65879 12.9898 10.0112 13.0428 10.3689 13.0852C11.0207 13.162 11.6858 13.109 12.3296 12.9792C14.7753 12.481 16.8235 10.3746 17.2024 7.90244C17.258 7.54208 17.3004 7.18173 17.3004 6.81608C17.3031 6.2623 16.8102 5.72972 16.2405 5.75621C15.6682 5.77476 15.186 6.2146 15.186 6.80813ZM18.7021 23.3764H5.10668C4.50521 23.3764 3.90373 23.3817 3.30226 23.3764C3.23602 23.3764 3.16978 23.3711 3.10619 23.3632C3.19892 23.3764 3.29431 23.3897 3.38705 23.4003C3.28106 23.3844 3.18038 23.3552 3.08234 23.3155C3.16713 23.3499 3.25192 23.387 3.33671 23.4215C3.23072 23.3764 3.13268 23.3182 3.03994 23.2466L3.25457 23.4135C3.17508 23.3473 3.10089 23.2758 3.03729 23.1963L3.20422 23.4109C3.13268 23.3182 3.07704 23.2201 3.02935 23.1141C3.06379 23.1989 3.10089 23.2837 3.13533 23.3685C3.09559 23.2705 3.06909 23.1671 3.05054 23.0638C3.06379 23.1565 3.07704 23.2519 3.08764 23.3447C3.04524 23.024 3.07439 22.6849 3.07439 22.3616V21.2276C3.07439 20.9441 3.09029 20.6632 3.12738 20.3823C3.11413 20.4751 3.10089 20.5705 3.09029 20.6632C3.16448 20.12 3.30756 19.5874 3.52218 19.0813C3.48774 19.1661 3.45064 19.2509 3.4162 19.3357C3.62287 18.8535 3.88784 18.4004 4.20844 17.9844L4.04152 18.199C4.36212 17.7883 4.73043 17.4174 5.14377 17.0968L4.92915 17.2637C5.34515 16.9431 5.79824 16.6781 6.28048 16.4714C6.19569 16.5059 6.1109 16.543 6.02611 16.5774C6.5322 16.3654 7.06213 16.2197 7.60796 16.1455C7.51522 16.1588 7.41983 16.172 7.32709 16.1826C7.71924 16.1323 8.10874 16.1296 8.50354 16.1296H13.3524C13.7896 16.1296 14.2242 16.127 14.6613 16.1826C14.5686 16.1694 14.4732 16.1561 14.3805 16.1455C14.9237 16.2197 15.4562 16.3628 15.9623 16.5774C15.8775 16.543 15.7928 16.5059 15.708 16.4714C16.1902 16.6781 16.6433 16.9431 17.0593 17.2637L16.8447 17.0968C17.2554 17.4174 17.6263 17.7857 17.9469 18.199L17.78 17.9844C18.1006 18.4004 18.3656 18.8535 18.5722 19.3357C18.5378 19.2509 18.5007 19.1661 18.4663 19.0813C18.6782 19.5874 18.824 20.1174 18.8982 20.6632C18.8849 20.5705 18.8717 20.4751 18.8611 20.3823C18.9114 20.7824 18.9141 21.1799 18.9141 21.5826V22.8942C18.9141 23.0452 18.9194 23.1963 18.9008 23.3447C18.9141 23.2519 18.9273 23.1565 18.9379 23.0638C18.922 23.1698 18.8929 23.2705 18.8531 23.3685C18.8876 23.2837 18.9247 23.1989 18.9591 23.1141C18.9141 23.2201 18.8558 23.3182 18.7842 23.4109L18.9511 23.1963C18.8849 23.2758 18.8134 23.3499 18.7339 23.4135L18.9485 23.2466C18.8558 23.3182 18.7577 23.3738 18.6517 23.4215C18.7365 23.387 18.8213 23.3499 18.9061 23.3155C18.8081 23.3552 18.7047 23.3817 18.6014 23.4003C18.6941 23.387 18.7895 23.3738 18.8823 23.3632C18.824 23.3711 18.763 23.3738 18.7021 23.3764C18.4292 23.3791 18.1483 23.493 17.9522 23.6865C17.7694 23.8693 17.629 24.1713 17.6422 24.4363C17.6687 25.0033 18.1086 25.5041 18.7021 25.4962C19.7328 25.4803 20.639 24.8073 20.941 23.8189C21.0603 23.4268 21.0338 23.0055 21.0338 22.6027C21.0338 21.6807 21.0629 20.7665 20.9039 19.8524C20.6708 18.5143 19.9978 17.2557 19.0757 16.2674C18.1536 15.2791 16.9136 14.5531 15.602 14.2298C14.8495 14.0443 14.0917 14.0152 13.3233 14.0152H8.62278C7.83583 14.0152 7.05418 14.0523 6.28843 14.2563C4.98744 14.6008 3.7633 15.3347 2.85977 16.331C1.94828 17.3352 1.28852 18.5965 1.0739 19.9425C0.930816 20.846 0.959962 21.7522 0.959962 22.6637C0.959962 23.0823 0.936115 23.5195 1.08715 23.9196C1.28322 24.4337 1.59588 24.8391 2.05427 25.1438C2.41198 25.3796 2.86507 25.4935 3.28901 25.4988C3.49569 25.5015 3.70236 25.4988 3.90903 25.4988H18.7047C19.2585 25.4988 19.7911 25.0113 19.7646 24.439C19.7381 23.8613 19.2983 23.3764 18.7021 23.3764Z" fill="#9FCEEE"/>
<path d="M15.1409 7.50499L14.9425 7.4799L15.3389 7.53327L15.1409 7.50499ZM15.178 7.22413L15.3767 7.24683L14.9799 7.1968L15.178 7.22413ZM14.815 8.5622L14.6297 8.48693L14.9998 8.63864L14.815 8.5622ZM14.921 8.30784L15.1063 8.38311L14.7369 8.22975L14.921 8.30784ZM14.2374 9.47898L14.0791 9.35676L14.3953 9.60177L14.2374 9.47898ZM14.4043 9.26436L14.5623 9.38699L14.2465 9.14157L14.4043 9.26436ZM13.4531 10.2156L13.3303 10.0577L13.5757 10.3736L13.4531 10.2156ZM13.6677 10.0487L13.7905 10.2065L13.5462 9.88979L13.6677 10.0487ZM12.4966 10.7323L12.4185 10.5481L12.5719 10.9176L12.4966 10.7323ZM12.7509 10.6263L12.8274 10.8111L12.6757 10.441L12.7509 10.6263ZM11.4129 10.9893L11.3846 10.7913L11.4402 11.1874L11.4129 10.9893ZM11.6937 10.9522L11.7198 11.1505L11.671 10.7535L11.6937 10.9522ZM10.3 10.9522L10.3261 10.7539L10.2717 11.1502L10.3 10.9522ZM10.5809 10.9893L10.5582 11.188L10.6082 10.7912L10.5809 10.9893ZM9.2428 10.6263L9.31807 10.441L9.16636 10.8111L9.2428 10.6263ZM9.49716 10.7323L9.42189 10.9176L9.57524 10.5481L9.49716 10.7323ZM8.32601 10.0487L8.44824 9.89035L8.20323 10.2065L8.32601 10.0487ZM8.54064 10.2156L8.41801 10.3736L8.66342 10.0577L8.54064 10.2156ZM7.58941 9.26436L7.74728 9.14157L7.43141 9.38699L7.58941 9.26436ZM7.75634 9.47898L7.59847 9.60177L7.91521 9.35749L7.75634 9.47898ZM7.07273 8.30784L7.25686 8.22975L6.88743 8.38311L7.07273 8.30784ZM7.17871 8.5622L6.9939 8.63864L7.36401 8.48693L7.17871 8.5622ZM6.81571 7.22413L7.0137 7.19584L6.61759 7.25145L6.81571 7.22413ZM6.8528 7.50499L6.65451 7.53105L7.05151 7.48228L6.8528 7.50499ZM6.8528 6.11127L7.0511 6.13733L6.65481 6.08298L6.8528 6.11127ZM6.81571 6.39213L6.617 6.36942L7.01383 6.41946L6.81571 6.39213ZM7.17871 5.05405L7.36401 5.12933L6.9939 4.97762L7.17871 5.05405ZM7.07273 5.30842L6.88743 5.23315L7.25686 5.3865L7.07273 5.30842ZM7.75634 4.13727L7.91465 4.2595L7.59847 4.01448L7.75634 4.13727ZM7.58941 4.35189L7.43141 4.22927L7.74728 4.47468L7.58941 4.35189ZM8.54064 3.40067L8.66343 3.55854L8.41801 3.24267L8.54064 3.40067ZM8.32601 3.5676L8.20323 3.40973L8.4475 3.72647L8.32601 3.5676ZM9.49716 2.88398L9.57524 3.06811L9.42189 2.69869L9.49716 2.88398ZM9.2428 2.98997L9.16636 2.80515L9.31807 3.17526L9.2428 2.98997ZM10.5809 2.62697L10.6092 2.82496L10.5535 2.42884L10.5809 2.62697ZM10.3 2.66406L10.2739 2.46577L10.3227 2.86277L10.3 2.66406ZM11.6937 2.66406L11.6677 2.86236L11.722 2.46607L11.6937 2.66406ZM11.4129 2.62697L11.4356 2.42826L11.3855 2.82509L11.4129 2.62697ZM12.7509 2.98997L12.6757 3.17526L12.8274 2.80515L12.7509 2.98997ZM12.4966 2.88398L12.5719 2.69869L12.4185 3.06811L12.4966 2.88398ZM13.6677 3.5676L13.5455 3.7259L13.7905 3.40973L13.6677 3.5676ZM13.4531 3.40067L13.5757 3.24267L13.3303 3.55854L13.4531 3.40067ZM14.4043 4.35189L14.2465 4.47468L14.5623 4.22927L14.4043 4.35189ZM14.2374 4.13727L14.3953 4.01448L14.0785 4.25876L14.2374 4.13727ZM14.921 5.30842L14.7369 5.3865L15.1063 5.23315L14.921 5.30842ZM14.815 5.05405L14.9998 4.97762L14.6297 5.12933L14.815 5.05405ZM15.178 6.39213L14.98 6.42042L15.3762 6.36481L15.178 6.39213ZM15.1409 6.11127L15.3394 6.08618L14.9422 6.13398L15.1409 6.11127ZM16.2458 7.86799L16.2551 8.06778L16.2551 8.06778L16.2458 7.86799ZM17.3057 6.80813L17.1057 6.80896V6.80902L17.3057 6.80813ZM16.1717 3.20724L16.3337 3.09005L16.3337 3.08998L16.1717 3.20724ZM15.5172 2.40969L15.6609 2.27061L15.6609 2.27059L15.5172 2.40969ZM14.7355 1.73668L14.6143 1.89577L14.6146 1.89594L14.7355 1.73668ZM13.0822 0.856995L13.0133 1.04478L13.0134 1.04481L13.0822 0.856995ZM6.18509 2.73295L6.33948 2.86009L6.33965 2.85988L6.18509 2.73295ZM5.57037 3.58614L5.74174 3.68927L5.74213 3.6886L5.57037 3.58614ZM5.11993 4.52677L5.30517 4.60218L5.30552 4.60131L5.11993 4.52677ZM4.70128 6.40538L4.50189 6.38979L4.50188 6.38988L4.70128 6.40538ZM5.58892 10.0646L5.75992 9.96083L5.75982 9.96068L5.58892 10.0646ZM8.29687 12.5102L8.2144 12.6924L8.21455 12.6925L8.29687 12.5102ZM9.31169 12.8944L9.25771 13.087L9.25869 13.0872L9.31169 12.8944ZM10.3689 13.0852L10.3454 13.2838L10.3455 13.2838L10.3689 13.0852ZM12.3296 12.9792L12.3692 13.1752L12.3696 13.1752L12.3296 12.9792ZM17.2024 7.90244L17.0047 7.87192L17.0047 7.87214L17.2024 7.90244ZM17.3004 6.81608L17.1004 6.81512V6.81608H17.3004ZM16.2405 5.75621L16.247 5.95613L16.2498 5.956L16.2405 5.75621ZM3.30226 23.3764L3.30402 23.1764H3.30226V23.3764ZM3.10619 23.3632L3.13099 23.1647L3.0779 23.5612L3.10619 23.3632ZM3.38705 23.4003L3.36434 23.599L3.41672 23.2025L3.38705 23.4003ZM3.08234 23.3155L3.15748 23.1302L3.00706 23.5008L3.08234 23.3155ZM3.33671 23.4215L3.26143 23.6068L3.41493 23.2374L3.33671 23.4215ZM3.03994 23.2466L3.16211 23.0883L2.91716 23.4045L3.03994 23.2466ZM3.25457 23.4135L3.13178 23.5714L3.3826 23.2599L3.25457 23.4135ZM3.03729 23.1963L3.19347 23.0713L2.87942 23.3191L3.03729 23.1963ZM3.20422 23.4109L3.04635 23.5337L3.36258 23.2887L3.20422 23.4109ZM3.02935 23.1141L3.21173 23.0321L2.84405 23.1894L3.02935 23.1141ZM3.13533 23.3685L2.95004 23.4438L3.32068 23.2934L3.13533 23.3685ZM3.05054 23.0638L3.2474 23.0285L2.85255 23.0921L3.05054 23.0638ZM3.08764 23.3447L2.88936 23.3709L3.28634 23.3219L3.08764 23.3447ZM3.12738 20.3823L3.32566 20.4085L2.92939 20.354L3.12738 20.3823ZM3.09029 20.6632L2.89158 20.6405L3.28845 20.6903L3.09029 20.6632ZM3.52218 19.0813L3.70748 19.1566L3.33806 19.0033L3.52218 19.0813ZM3.4162 19.3357L3.2309 19.2604L3.60002 19.4145L3.4162 19.3357ZM4.20844 17.9844L4.36686 18.1065L4.05057 17.8616L4.20844 17.9844ZM4.04152 18.199L3.88365 18.0762L4.19917 18.3221L4.04152 18.199ZM5.14377 17.0968L5.26656 17.2546L5.0212 16.9387L5.14377 17.0968ZM4.92915 17.2637L4.80636 17.1058L5.05124 17.4221L4.92915 17.2637ZM6.28048 16.4714L6.35926 16.6553L6.2052 16.2861L6.28048 16.4714ZM6.02611 16.5774L5.94884 16.3929L6.10139 16.7627L6.02611 16.5774ZM7.60796 16.1455L7.63624 16.3435L7.58102 15.9473L7.60796 16.1455ZM7.32709 16.1826L7.30163 15.9843L7.3498 16.3813L7.32709 16.1826ZM14.6613 16.1826L14.6361 16.381L14.6896 15.9846L14.6613 16.1826ZM14.3805 16.1455L14.4032 15.9468L14.3534 16.3437L14.3805 16.1455ZM15.9623 16.5774L15.8871 16.7627L16.0404 16.3933L15.9623 16.5774ZM15.708 16.4714L15.7832 16.2861L15.6292 16.6553L15.708 16.4714ZM17.0593 17.2637L16.9372 17.4221L17.1821 17.1058L17.0593 17.2637ZM16.8447 17.0968L16.9675 16.9389L16.7216 17.2544L16.8447 17.0968ZM17.9469 18.199L17.7891 18.3218L18.105 18.0764L17.9469 18.199ZM17.78 17.9844L17.9379 17.8616L17.6216 18.1065L17.78 17.9844ZM18.5722 19.3357L18.3884 19.4145L18.7575 19.2604L18.5722 19.3357ZM18.4663 19.0813L18.6507 19.0041L18.281 19.1566L18.4663 19.0813ZM18.8982 20.6632L18.7002 20.6915L19.0963 20.6363L18.8982 20.6632ZM18.8611 20.3823L19.0595 20.3574L18.6624 20.405L18.8611 20.3823ZM18.9008 23.3447L18.7023 23.3198L19.0988 23.3729L18.9008 23.3447ZM18.9379 23.0638L19.1366 23.0865L18.7401 23.0341L18.9379 23.0638ZM18.8531 23.3685L18.6678 23.2934L19.0384 23.4438L18.8531 23.3685ZM18.9591 23.1141L19.1444 23.1894L18.775 23.0359L18.9591 23.1141ZM18.7842 23.4109L18.6259 23.2887L18.9421 23.5337L18.7842 23.4109ZM18.9511 23.1963L19.109 23.3191L18.7975 23.0682L18.9511 23.1963ZM18.7339 23.4135L18.6089 23.2574L18.8567 23.5714L18.7339 23.4135ZM18.9485 23.2466L19.0713 23.4045L18.8263 23.0883L18.9485 23.2466ZM18.6517 23.4215L18.5697 23.2391L18.727 23.6068L18.6517 23.4215ZM18.9061 23.3155L18.9814 23.5008L18.831 23.1302L18.9061 23.3155ZM18.6014 23.4003L18.5661 23.2034L18.6297 23.5983L18.6014 23.4003ZM18.8823 23.3632L18.9093 23.5614L18.8595 23.1645L18.8823 23.3632ZM17.9522 23.6865L17.8118 23.5441L17.8108 23.545L17.9522 23.6865ZM17.6422 24.4363L17.842 24.427L17.842 24.4263L17.6422 24.4363ZM18.7021 25.4962L18.7048 25.6962L18.7052 25.6961L18.7021 25.4962ZM20.941 23.8189L21.1323 23.8774L21.1324 23.8771L20.941 23.8189ZM20.9039 19.8524L21.101 19.8181L21.101 19.8181L20.9039 19.8524ZM15.602 14.2298L15.5541 14.424L15.5541 14.424L15.602 14.2298ZM6.28843 14.2563L6.33962 14.4497L6.33992 14.4496L6.28843 14.2563ZM2.85977 16.331L3.00786 16.4654L3.00792 16.4654L2.85977 16.331ZM1.0739 19.9425L0.876392 19.911L0.876359 19.9112L1.0739 19.9425ZM1.08715 23.9196L0.900032 23.9903L0.900279 23.9909L1.08715 23.9196ZM2.05427 25.1438L1.94355 25.3103L1.94419 25.3107L2.05427 25.1438ZM3.28901 25.4988L3.29158 25.2988H3.29151L3.28901 25.4988ZM19.7646 24.439L19.5648 24.4481L19.5648 24.4482L19.7646 24.439ZM14.986 6.80813C14.986 7.03224 14.9707 7.25701 14.9425 7.4799L15.3394 7.53008C15.3695 7.29192 15.386 7.05035 15.386 6.80813H14.986ZM15.3389 7.53327C15.3522 7.44029 15.3658 7.34255 15.3767 7.24683L14.9793 7.20142C14.9691 7.29118 14.9562 7.38421 14.9429 7.4767L15.3389 7.53327ZM14.9799 7.1968C14.9187 7.64083 14.8013 8.07213 14.6302 8.48577L14.9998 8.63864C15.1838 8.19379 15.3102 7.7295 15.3762 7.25145L14.9799 7.1968ZM15.0003 8.63748C15.017 8.59653 15.0343 8.55536 15.0523 8.51276C15.0701 8.47057 15.0885 8.42695 15.1063 8.38311L14.7357 8.23256C14.7191 8.27351 14.7017 8.31467 14.6837 8.35728C14.666 8.39946 14.6475 8.44309 14.6297 8.48693L15.0003 8.63748ZM14.7369 8.22975C14.5659 8.63299 14.3466 9.01025 14.0791 9.35676L14.3957 9.60121C14.6846 9.22701 14.9211 8.81997 15.1051 8.38592L14.7369 8.22975ZM14.3953 9.60177L14.5622 9.38715L14.2465 9.14157L14.0795 9.3562L14.3953 9.60177ZM14.2463 9.14174C13.981 9.48357 13.6723 9.79229 13.3305 10.0576L13.5757 10.3736C13.944 10.0878 14.2765 9.75527 14.5623 9.38699L14.2463 9.14174ZM13.5759 10.3735L13.7905 10.2065L13.5449 9.89079L13.3303 10.0577L13.5759 10.3735ZM13.5462 9.88979C13.1988 10.1555 12.8211 10.3774 12.4185 10.5481L12.5747 10.9164C13.0093 10.7321 13.416 10.4929 13.7892 10.2075L13.5462 9.88979ZM12.5719 10.9176C12.6157 10.8998 12.6593 10.8813 12.7015 10.8636C12.7441 10.8456 12.7853 10.8282 12.8262 10.8116L12.6757 10.441C12.6318 10.4588 12.5882 10.4772 12.546 10.495C12.5034 10.513 12.4623 10.5303 12.4213 10.547L12.5719 10.9176ZM12.6745 10.4415C12.2609 10.6125 11.8296 10.7299 11.3855 10.7912L11.4402 11.1874C11.9182 11.1215 12.3825 10.9951 12.8274 10.8111L12.6745 10.4415ZM11.4412 11.1873C11.5337 11.1741 11.6267 11.1612 11.7164 11.1509L11.671 10.7535C11.5753 10.7644 11.4776 10.778 11.3846 10.7913L11.4412 11.1873ZM11.6677 10.7539C11.2213 10.8126 10.7725 10.8126 10.3261 10.7539L10.2739 11.1505C10.7549 11.2137 11.2388 11.2137 11.7198 11.1505L11.6677 10.7539ZM10.2717 11.1502C10.3647 11.1635 10.4624 11.1771 10.5582 11.188L10.6036 10.7906C10.5138 10.7803 10.4208 10.7674 10.3283 10.7542L10.2717 11.1502ZM10.6082 10.7912C10.1642 10.7299 9.73287 10.6125 9.31923 10.4415L9.16636 10.8111C9.61121 10.9951 10.0755 11.1215 10.5535 11.1874L10.6082 10.7912ZM9.16752 10.8116C9.20847 10.8282 9.24964 10.8456 9.29224 10.8636C9.33442 10.8813 9.37805 10.8998 9.42189 10.9176L9.57244 10.547C9.53149 10.5303 9.49032 10.513 9.44772 10.495C9.40554 10.4772 9.36191 10.4588 9.31807 10.441L9.16752 10.8116ZM9.57524 10.5481C9.17201 10.3772 8.79475 10.1579 8.44824 9.89035L8.20379 10.207C8.57799 10.4959 8.98503 10.7323 9.41908 10.9164L9.57524 10.5481ZM8.20323 10.2065L8.41785 10.3735L8.66342 10.0577L8.4488 9.89079L8.20323 10.2065ZM8.66326 10.0576C8.32143 9.79229 8.01271 9.48357 7.74741 9.14174L7.43141 9.38699C7.71724 9.75527 8.04973 10.0878 8.41801 10.3736L8.66326 10.0576ZM7.43154 9.38715L7.59847 9.60177L7.91421 9.3562L7.74728 9.14157L7.43154 9.38715ZM7.91521 9.35749C7.6495 9.01003 7.42759 8.63239 7.25686 8.22975L6.8886 8.38592C7.07291 8.82057 7.31205 9.22724 7.59747 9.60047L7.91521 9.35749ZM6.88743 8.38311C6.90524 8.42695 6.92365 8.47057 6.94145 8.51276C6.95942 8.55536 6.97678 8.59653 6.99342 8.63748L7.36401 8.48693C7.3462 8.44309 7.32779 8.39946 7.30999 8.35728C7.29202 8.31467 7.27466 8.27351 7.25802 8.23256L6.88743 8.38311ZM7.36353 8.48577C7.19246 8.07213 7.07508 7.64083 7.01383 7.1968L6.61759 7.25145C6.68352 7.7295 6.80991 8.19378 6.9939 8.63864L7.36353 8.48577ZM6.61772 7.25241C6.63093 7.34491 6.64384 7.43794 6.6541 7.5277L7.05151 7.48228C7.04057 7.38656 7.02698 7.28882 7.0137 7.19584L6.61772 7.25241ZM7.0511 7.47893C6.99243 7.03254 6.99243 6.58372 7.0511 6.13733L6.65451 6.08521C6.59129 6.5662 6.59129 7.05006 6.65451 7.53105L7.0511 7.47893ZM6.65481 6.08298C6.64153 6.17596 6.62794 6.27371 6.617 6.36942L7.01442 6.41484C7.02467 6.32508 7.03758 6.23205 7.05079 6.13955L6.65481 6.08298ZM7.01383 6.41946C7.07508 5.97542 7.19246 5.54413 7.36353 5.13049L6.9939 4.97762C6.80991 5.42247 6.68352 5.88676 6.61759 6.36481L7.01383 6.41946ZM6.99342 4.97878C6.97678 5.01973 6.95942 5.06089 6.94145 5.1035C6.92365 5.14568 6.90524 5.18931 6.88743 5.23315L7.25802 5.3837C7.27466 5.34275 7.29202 5.30158 7.30999 5.25898C7.32779 5.21679 7.3462 5.17317 7.36401 5.12933L6.99342 4.97878ZM7.25686 5.3865C7.42785 4.98326 7.64712 4.606 7.91465 4.2595L7.59803 4.01505C7.30913 4.38925 7.07266 4.79629 6.8886 5.23034L7.25686 5.3865ZM7.59847 4.01448L7.43154 4.22911L7.74728 4.47468L7.91421 4.26006L7.59847 4.01448ZM7.74741 4.47452C8.01271 4.13269 8.32143 3.82397 8.66326 3.55866L8.41801 3.24267C8.04973 3.5285 7.71724 3.86099 7.43141 4.22927L7.74741 4.47452ZM8.41785 3.2428L8.20323 3.40973L8.4488 3.72547L8.66343 3.55854L8.41785 3.2428ZM8.4475 3.72647C8.79498 3.46076 9.1726 3.23885 9.57524 3.06811L9.41908 2.69985C8.98443 2.88417 8.57776 3.12331 8.20452 3.40872L8.4475 3.72647ZM9.42189 2.69869C9.37805 2.7165 9.33442 2.73491 9.29224 2.7527C9.24964 2.77068 9.20847 2.78804 9.16752 2.80468L9.31807 3.17526C9.36191 3.15745 9.40554 3.13905 9.44772 3.12125C9.49032 3.10328 9.53149 3.08591 9.57244 3.06928L9.42189 2.69869ZM9.31923 3.17479C9.73287 3.00372 10.1642 2.88634 10.6082 2.82509L10.5535 2.42884C10.0755 2.49478 9.61121 2.62117 9.16636 2.80515L9.31923 3.17479ZM10.5526 2.42898C10.4601 2.44219 10.3671 2.4551 10.2773 2.46536L10.3227 2.86277C10.4184 2.85183 10.5162 2.83824 10.6092 2.82496L10.5526 2.42898ZM10.3261 2.86236C10.7725 2.80369 11.2213 2.80369 11.6677 2.86236L11.7198 2.46577C11.2388 2.40255 10.7549 2.40255 10.2739 2.46577L10.3261 2.86236ZM11.722 2.46607C11.629 2.45279 11.5313 2.4392 11.4356 2.42826L11.3902 2.82567C11.4799 2.83593 11.5729 2.84884 11.6654 2.86205L11.722 2.46607ZM11.3855 2.82509C11.8296 2.88634 12.2609 3.00372 12.6745 3.17479L12.8274 2.80515C12.3825 2.62117 11.9182 2.49478 11.4402 2.42884L11.3855 2.82509ZM12.8262 2.80468C12.7853 2.78804 12.7441 2.77068 12.7015 2.7527C12.6593 2.73491 12.6157 2.7165 12.5719 2.69869L12.4213 3.06928C12.4623 3.08591 12.5034 3.10328 12.546 3.12125C12.5882 3.13905 12.6318 3.15745 12.6757 3.17526L12.8262 2.80468ZM12.4185 3.06811C12.8217 3.23911 13.199 3.45838 13.5455 3.7259L13.79 3.40929C13.4158 3.12038 13.0087 2.88392 12.5747 2.69985L12.4185 3.06811ZM13.7905 3.40973L13.5759 3.2428L13.3303 3.55854L13.5449 3.72547L13.7905 3.40973ZM13.3305 3.55866C13.6723 3.82397 13.981 4.13269 14.2463 4.47452L14.5623 4.22927C14.2765 3.86099 13.944 3.5285 13.5757 3.24267L13.3305 3.55866ZM14.5622 4.22911L14.3953 4.01448L14.0795 4.26006L14.2465 4.47468L14.5622 4.22911ZM14.0785 4.25876C14.3442 4.60623 14.5661 4.98386 14.7369 5.3865L15.1051 5.23034C14.9208 4.79569 14.6817 4.38902 14.3963 4.01578L14.0785 4.25876ZM15.1063 5.23315C15.0885 5.18931 15.0701 5.14568 15.0523 5.1035C15.0343 5.06089 15.017 5.01973 15.0003 4.97878L14.6297 5.12933C14.6475 5.17317 14.666 5.21679 14.6837 5.25898C14.7017 5.30158 14.7191 5.34275 14.7357 5.3837L15.1063 5.23315ZM14.6302 5.13049C14.8013 5.54413 14.9187 5.97542 14.9799 6.41946L15.3762 6.36481C15.3102 5.88676 15.1838 5.42247 14.9998 4.97762L14.6302 5.13049ZM15.376 6.36385C15.3628 6.27135 15.3499 6.17832 15.3396 6.08856L14.9422 6.13398C14.9532 6.22969 14.9668 6.32744 14.98 6.42042L15.376 6.36385ZM14.9425 6.13636C14.9705 6.35781 14.9834 6.58318 14.986 6.8104L15.386 6.80586C15.3833 6.56674 15.3697 6.32577 15.3394 6.08618L14.9425 6.13636ZM14.986 6.80909C14.9891 7.46027 15.5509 8.10023 16.2551 8.06778L16.2366 7.6682C15.7909 7.68875 15.3882 7.26355 15.386 6.80717L14.986 6.80909ZM16.2551 8.06778C16.9187 8.03705 17.5089 7.52309 17.5057 6.80724L17.1057 6.80902C17.1078 7.28021 16.7176 7.64594 16.2366 7.66821L16.2551 8.06778ZM17.5057 6.80729C17.5003 5.50064 17.1078 4.16063 16.3337 3.09005L16.0096 3.32443C16.7299 4.32058 17.1006 5.57725 17.1057 6.80896L17.5057 6.80729ZM16.3337 3.08998C16.1295 2.80787 15.9086 2.52656 15.6609 2.27061L15.3735 2.54878C15.6027 2.78567 15.8111 3.05019 16.0096 3.32451L16.3337 3.08998ZM15.6609 2.27059C15.4092 2.01059 15.1347 1.78875 14.8565 1.57742L14.6146 1.89594C14.8875 2.10326 15.143 2.31067 15.3735 2.5488L15.6609 2.27059ZM14.8567 1.5776C14.3364 1.18114 13.7585 0.891589 13.1509 0.669183L13.0134 1.04481C13.5929 1.25694 14.1331 1.52912 14.6143 1.89577L14.8567 1.5776ZM13.151 0.669213C10.6787 -0.23701 7.70357 0.568799 6.03053 2.60602L6.33965 2.85988C7.90449 0.954415 10.7003 0.196925 13.0133 1.04478L13.151 0.669213ZM6.0307 2.60581C5.80484 2.88007 5.58596 3.16959 5.39861 3.48369L5.74213 3.6886C5.91513 3.39857 6.12019 3.12636 6.33948 2.86009L6.0307 2.60581ZM5.399 3.48302C5.21063 3.79606 5.06554 4.12558 4.93434 4.45223L5.30552 4.60131C5.43399 4.28145 5.56976 3.97505 5.74173 3.68927L5.399 3.48302ZM4.93469 4.45136C4.68128 5.07386 4.5534 5.73097 4.50189 6.38979L4.90067 6.42097C4.94985 5.79206 5.07104 5.17733 5.30517 4.60218L4.93469 4.45136ZM4.50188 6.38988C4.40048 7.69442 4.73992 9.05286 5.41801 10.1684L5.75982 9.96068C5.12369 8.91413 4.80601 7.63882 4.90068 6.42088L4.50188 6.38988ZM5.41792 10.1683C6.07003 11.2433 7.05601 12.1681 8.2144 12.6924L8.37934 12.328C7.30141 11.8401 6.37434 10.9737 5.75992 9.96083L5.41792 10.1683ZM8.21455 12.6925C8.5468 12.8425 8.89382 12.985 9.25771 13.087L9.36567 12.7018C9.03005 12.6077 8.70405 12.4746 8.37919 12.3279L8.21455 12.6925ZM9.25869 13.0872C9.62027 13.1866 9.98435 13.241 10.3454 13.2838L10.3924 12.8866C10.038 12.8446 9.69732 12.793 9.36469 12.7015L9.25869 13.0872ZM10.3455 13.2838C11.0232 13.3637 11.7101 13.3081 12.3692 13.1752L12.2901 12.7831C11.6614 12.9099 11.0182 12.9603 10.3923 12.8865L10.3455 13.2838ZM12.3696 13.1752C14.8954 12.6607 17.0082 10.4896 17.4001 7.93274L17.0047 7.87214C16.6388 10.2596 14.6551 12.3014 12.2897 12.7832L12.3696 13.1752ZM17.4 7.93296C17.4563 7.56854 17.5004 7.19663 17.5004 6.81608H17.1004C17.1004 7.16683 17.0597 7.51563 17.0047 7.87192L17.4 7.93296ZM17.5004 6.81703C17.5035 6.16194 16.928 5.52402 16.2313 5.55643L16.2498 5.956C16.6924 5.93541 17.1026 6.36266 17.1004 6.81512L17.5004 6.81703ZM16.2341 5.55632C15.5656 5.57798 14.986 6.09532 14.986 6.80813H15.386C15.386 6.33389 15.7709 5.97154 16.247 5.95611L16.2341 5.55632ZM18.7021 23.1764H5.10668V23.5764H18.7021V23.1764ZM5.10668 23.1764C4.50271 23.1764 3.90447 23.1817 3.30402 23.1765L3.3005 23.5764C3.903 23.5817 4.5077 23.5764 5.10668 23.5764V23.1764ZM3.30226 23.1764C3.24641 23.1764 3.18874 23.172 3.13099 23.1647L3.08138 23.5617C3.15082 23.5703 3.22563 23.5764 3.30226 23.5764V23.1764ZM3.0779 23.5612C3.17088 23.5745 3.26862 23.5881 3.36434 23.599L3.40976 23.2016C3.32 23.1913 3.22697 23.1784 3.13447 23.1652L3.0779 23.5612ZM3.41672 23.2025C3.32812 23.1892 3.24268 23.1647 3.15748 23.1302L3.0072 23.5009C3.11807 23.5458 3.23401 23.5796 3.35738 23.5981L3.41672 23.2025ZM3.00706 23.5008C3.04801 23.5174 3.08918 23.5348 3.13178 23.5528C3.17397 23.5706 3.21759 23.589 3.26143 23.6068L3.41198 23.2362C3.37103 23.2196 3.32987 23.2022 3.28726 23.1842C3.24508 23.1664 3.20145 23.148 3.15761 23.1302L3.00706 23.5008ZM3.41493 23.2374C3.3256 23.1995 3.24222 23.1501 3.16211 23.0883L2.91778 23.405C3.02314 23.4862 3.13583 23.5534 3.25848 23.6056L3.41493 23.2374ZM2.91716 23.4045L3.13178 23.5714L3.37735 23.2557L3.16273 23.0887L2.91716 23.4045ZM3.3826 23.2599C3.31022 23.1996 3.24641 23.1375 3.19347 23.0713L2.88112 23.3212C2.95537 23.414 3.03994 23.495 3.12653 23.5672L3.3826 23.2599ZM2.87942 23.3191L3.04635 23.5337L3.36209 23.2881L3.19517 23.0735L2.87942 23.3191ZM3.36258 23.2887C3.30238 23.2107 3.25433 23.1267 3.21173 23.0321L2.84696 23.1962C2.89974 23.3135 2.96299 23.4256 3.04587 23.5331L3.36258 23.2887ZM2.84405 23.1894C2.86186 23.2332 2.88027 23.2769 2.89807 23.3191C2.91604 23.3617 2.9334 23.4028 2.95004 23.4438L3.32063 23.2932C3.30282 23.2494 3.28441 23.2058 3.26661 23.1636C3.24864 23.121 3.23128 23.0798 3.21464 23.0389L2.84405 23.1894ZM3.32068 23.2934C3.28755 23.2116 3.26427 23.1224 3.2474 23.0285L2.85369 23.0991C2.87391 23.2118 2.90362 23.3293 2.94998 23.4436L3.32068 23.2934ZM2.85255 23.0921C2.86577 23.1846 2.87867 23.2776 2.88893 23.3674L3.28634 23.3219C3.27541 23.2262 3.26182 23.1285 3.24853 23.0355L2.85255 23.0921ZM3.28591 23.3184C3.24578 23.0149 3.27439 22.7091 3.27439 22.3616H2.87439C2.87439 22.6606 2.84471 23.0331 2.88936 23.3709L3.28591 23.3184ZM3.27439 22.3616V21.2276H2.87439V22.3616H3.27439ZM3.27439 21.2276C3.27439 20.9516 3.28987 20.6795 3.32566 20.4085L2.92911 20.3561C2.89071 20.6469 2.87439 20.9366 2.87439 21.2276H3.27439ZM2.92939 20.354C2.91611 20.447 2.90252 20.5448 2.89158 20.6405L3.28899 20.6859C3.29925 20.5961 3.31216 20.5031 3.32537 20.4106L2.92939 20.354ZM3.28845 20.6903C3.36035 20.1638 3.49891 19.6485 3.70631 19.1594L3.33806 19.0033C3.11621 19.5264 2.96861 20.0762 2.89213 20.6361L3.28845 20.6903ZM3.33689 19.0061C3.32025 19.047 3.30289 19.0882 3.28492 19.1308C3.26712 19.173 3.24871 19.2166 3.2309 19.2604L3.60149 19.411C3.61813 19.37 3.63549 19.3289 3.65346 19.2863C3.67126 19.2441 3.68967 19.2005 3.70748 19.1566L3.33689 19.0061ZM3.60002 19.4145C3.80016 18.9475 4.05663 18.509 4.36686 18.1065L4.05003 17.8623C3.71904 18.2918 3.44558 18.7594 3.23237 19.2569L3.60002 19.4145ZM4.05057 17.8616L3.88365 18.0762L4.19939 18.3218L4.36631 18.1072L4.05057 17.8616ZM4.19917 18.3221C4.50999 17.9239 4.86662 17.5648 5.26635 17.2548L5.0212 16.9387C4.59424 17.2699 4.21426 17.6527 3.88386 18.0759L4.19917 18.3221ZM5.02099 16.9389L4.80636 17.1058L5.05194 17.4216L5.26656 17.2546L5.02099 16.9389ZM5.05124 17.4221C5.45376 17.1119 5.89228 16.8554 6.35926 16.6553L6.20169 16.2876C5.7042 16.5008 5.23653 16.7743 4.80706 17.1053L5.05124 17.4221ZM6.2052 16.2861C6.16136 16.3039 6.11774 16.3224 6.07555 16.3402C6.03295 16.3581 5.99179 16.3755 5.95084 16.3921L6.10139 16.7627C6.14522 16.7449 6.18885 16.7265 6.23103 16.7087C6.27364 16.6907 6.3148 16.6734 6.35575 16.6567L6.2052 16.2861ZM6.10338 16.7619C6.59364 16.5565 7.10667 16.4155 7.63489 16.3437L7.58102 15.9473C7.01759 16.0239 6.47076 16.1743 5.94884 16.3929L6.10338 16.7619ZM7.57967 15.9475C7.48717 15.9608 7.39414 15.9737 7.30438 15.9839L7.3498 16.3813C7.44552 16.3704 7.54327 16.3568 7.63624 16.3435L7.57967 15.9475ZM7.35256 16.381C7.73042 16.3325 8.10801 16.3296 8.50354 16.3296V15.9296C8.10947 15.9296 7.70806 15.9321 7.30163 15.9843L7.35256 16.381ZM8.50354 16.3296H13.3524V15.9296H8.50354V16.3296ZM13.3524 16.3296C13.7929 16.3296 14.2139 16.3273 14.6361 16.381L14.6866 15.9842C14.2344 15.9267 13.7864 15.9296 13.3524 15.9296V16.3296ZM14.6896 15.9846C14.5967 15.9713 14.4989 15.9578 14.4032 15.9468L14.3578 16.3442C14.4475 16.3545 14.5406 16.3674 14.6331 16.3806L14.6896 15.9846ZM14.3534 16.3437C14.8798 16.4156 15.3952 16.5541 15.8842 16.7615L16.0404 16.3933C15.5173 16.1715 14.9675 16.0238 14.4076 15.9474L14.3534 16.3437ZM16.0376 16.3921C15.9967 16.3755 15.9555 16.3581 15.9129 16.3402C15.8707 16.3224 15.8271 16.3039 15.7832 16.2861L15.6327 16.6567C15.6736 16.6734 15.7148 16.6907 15.7574 16.7087C15.7996 16.7265 15.8432 16.7449 15.8871 16.7627L16.0376 16.3921ZM15.6292 16.6553C16.0962 16.8554 16.5347 17.1119 16.9372 17.4221L17.1814 17.1053C16.7519 16.7743 16.2842 16.5008 15.7867 16.2876L15.6292 16.6553ZM17.1821 17.1058L16.9675 16.9389L16.7219 17.2546L16.9365 17.4216L17.1821 17.1058ZM16.7216 17.2544C17.1198 17.5652 17.4788 17.9219 17.7889 18.3216L18.105 18.0764C17.7738 17.6495 17.391 17.2695 16.9677 16.9391L16.7216 17.2544ZM18.1048 18.0762L17.9379 17.8616L17.6221 18.1072L17.7891 18.3218L18.1048 18.0762ZM17.6216 18.1065C17.9318 18.509 18.1883 18.9475 18.3884 19.4145L18.7561 19.2569C18.5429 18.7594 18.2694 18.2918 17.9384 17.8623L17.6216 18.1065ZM18.7575 19.2604C18.7397 19.2166 18.7213 19.173 18.7035 19.1308C18.6856 19.0882 18.6682 19.047 18.6516 19.0061L18.281 19.1566C18.2988 19.2005 18.3172 19.2441 18.335 19.2863C18.353 19.3289 18.3703 19.37 18.387 19.411L18.7575 19.2604ZM18.2818 19.1586C18.4871 19.6489 18.6282 20.1619 18.7 20.6901L19.0963 20.6363C19.0198 20.0728 18.8693 19.526 18.6507 19.0041L18.2818 19.1586ZM19.0961 20.6349C19.0829 20.5424 19.07 20.4494 19.0598 20.3596L18.6624 20.405C18.6733 20.5008 18.6869 20.5985 18.7002 20.6915L19.0961 20.6349ZM18.6626 20.4073C18.7112 20.7934 18.7141 21.1792 18.7141 21.5826H19.1141C19.1141 21.1806 19.1116 20.7715 19.0595 20.3574L18.6626 20.4073ZM18.7141 21.5826V22.8942H19.1141V21.5826H18.7141ZM18.7141 22.8942C18.7141 23.0552 18.7189 23.1876 18.7023 23.3198L19.0993 23.3695C19.1198 23.205 19.1141 23.0353 19.1141 22.8942H18.7141ZM19.0988 23.3729C19.1121 23.28 19.1257 23.1822 19.1366 23.0865L18.7392 23.0411C18.7289 23.1308 18.716 23.2239 18.7028 23.3164L19.0988 23.3729ZM18.7401 23.0341C18.7268 23.1227 18.7023 23.2082 18.6678 23.2934L19.0385 23.4436C19.0834 23.3328 19.1172 23.2168 19.1357 23.0935L18.7401 23.0341ZM19.0384 23.4438C19.055 23.4028 19.0724 23.3617 19.0904 23.3191C19.1082 23.2769 19.1266 23.2332 19.1444 23.1894L18.7738 23.0389C18.7572 23.0798 18.7398 23.121 18.7218 23.1636C18.704 23.2058 18.6856 23.2494 18.6678 23.2932L19.0384 23.4438ZM18.775 23.0359C18.7371 23.1252 18.6877 23.2086 18.6259 23.2887L18.9426 23.5331C19.0239 23.4277 19.091 23.315 19.1432 23.1924L18.775 23.0359ZM18.9421 23.5337L19.109 23.3191L18.7933 23.0735L18.6264 23.2881L18.9421 23.5337ZM18.7975 23.0682C18.7372 23.1406 18.6751 23.2044 18.6089 23.2574L18.8588 23.5697C18.9516 23.4955 19.0326 23.4109 19.1048 23.3243L18.7975 23.0682ZM18.8567 23.5714L19.0713 23.4045L18.8257 23.0887L18.6111 23.2557L18.8567 23.5714ZM18.8263 23.0883C18.7483 23.1485 18.6643 23.1965 18.5697 23.2391L18.7338 23.6039C18.8511 23.5511 18.9632 23.4878 19.0707 23.405L18.8263 23.0883ZM18.727 23.6068C18.7709 23.589 18.8145 23.5706 18.8567 23.5528C18.8993 23.5348 18.9404 23.5174 18.9814 23.5008L18.8308 23.1302C18.787 23.148 18.7434 23.1664 18.7012 23.1842C18.6586 23.2022 18.6174 23.2196 18.5765 23.2362L18.727 23.6068ZM18.831 23.1302C18.7492 23.1633 18.66 23.1866 18.5661 23.2034L18.6367 23.5971C18.7494 23.5769 18.8669 23.5472 18.9812 23.5009L18.831 23.1302ZM18.6297 23.5983C18.7222 23.5851 18.8152 23.5722 18.905 23.5619L18.8595 23.1645C18.7638 23.1754 18.6661 23.189 18.5731 23.2023L18.6297 23.5983ZM18.8552 23.165C18.8077 23.1715 18.7561 23.1739 18.6934 23.1766L18.7108 23.5763C18.7699 23.5737 18.8403 23.5708 18.9093 23.5614L18.8552 23.165ZM18.7001 23.1765C18.3765 23.1796 18.0456 23.3134 17.8118 23.5441L18.0927 23.8288C18.251 23.6726 18.4819 23.5786 18.704 23.5764L18.7001 23.1765ZM17.8108 23.545C17.5959 23.7599 17.4259 24.1146 17.4425 24.4463L17.842 24.4263C17.8321 24.2281 17.9429 23.9787 18.0936 23.8279L17.8108 23.545ZM17.4424 24.4456C17.4731 25.1014 17.9853 25.7058 18.7048 25.6962L18.6994 25.2962C18.2318 25.3025 17.8643 24.9052 17.842 24.427L17.4424 24.4456ZM18.7052 25.6961C19.8217 25.6789 20.8046 24.9497 21.1323 23.8774L20.7498 23.7605C20.4734 24.6648 19.6439 25.2816 18.699 25.2962L18.7052 25.6961ZM21.1324 23.8771C21.2627 23.4485 21.2338 22.986 21.2338 22.6027H20.8338C20.8338 23.025 20.8578 23.4051 20.7497 23.7608L21.1324 23.8771ZM21.2338 22.6027C21.2338 21.6902 21.2637 20.7538 21.101 19.8181L20.7069 19.8867C20.8621 20.7793 20.8338 21.6711 20.8338 22.6027H21.2338ZM21.101 19.8181C20.8604 18.4377 20.1676 17.1445 19.2219 16.131L18.9294 16.4038C19.828 17.3669 20.4811 18.5909 20.7069 19.8867L21.101 19.8181ZM19.2219 16.131C18.2732 15.1141 16.999 14.3681 15.6498 14.0356L15.5541 14.424C16.8282 14.738 18.034 15.444 18.9294 16.4038L19.2219 16.131ZM15.6498 14.0356C14.8728 13.8441 14.095 13.8152 13.3233 13.8152V14.2152C14.0883 14.2152 14.8261 14.2446 15.5541 14.424L15.6498 14.0356ZM13.3233 13.8152H8.62278V14.2152H13.3233V13.8152ZM8.62278 13.8152C7.83124 13.8152 7.02849 13.8522 6.23694 14.0631L6.33992 14.4496C7.07986 14.2524 7.84041 14.2152 8.62278 14.2152V13.8152ZM6.23724 14.063C4.89984 14.4171 3.64173 15.1711 2.71162 16.1966L3.00792 16.4654C3.88487 15.4984 5.07505 14.7845 6.33962 14.4497L6.23724 14.063ZM2.71167 16.1966C1.77746 17.2259 1.09788 18.5219 0.876392 19.911L1.2714 19.974C1.47916 18.671 2.11911 17.4446 3.00786 16.4654L2.71167 16.1966ZM0.876359 19.9112C0.730141 20.8345 0.759962 21.7616 0.759962 22.6637H1.15996C1.15996 21.7428 1.13149 20.8575 1.27144 19.9738L0.876359 19.9112ZM0.759962 22.6637C0.759962 23.0635 0.73281 23.5473 0.900033 23.9903L1.27426 23.849C1.13942 23.4918 1.15996 23.1011 1.15996 22.6637H0.759962ZM0.900279 23.9909C1.11034 24.5416 1.44852 24.9813 1.94355 25.3103L2.16499 24.9772C1.74324 24.6969 1.4561 24.3257 1.27401 23.8483L0.900279 23.9909ZM1.94419 25.3107C2.33976 25.5715 2.83203 25.6931 3.28651 25.6988L3.29151 25.2988C2.89811 25.2939 2.48419 25.1876 2.16435 24.9768L1.94419 25.3107ZM3.28645 25.6988C3.49462 25.7015 3.70599 25.6988 3.90903 25.6988V25.2988C3.69873 25.2988 3.49675 25.3015 3.29158 25.2988L3.28645 25.6988ZM3.90903 25.6988H18.7047V25.2988H3.90903V25.6988ZM18.7047 25.6988C19.3579 25.6988 19.9968 25.1302 19.9644 24.4297L19.5648 24.4482C19.5854 24.8924 19.1591 25.2988 18.7047 25.2988V25.6988ZM19.9644 24.4298C19.9336 23.7595 19.4188 23.1764 18.7021 23.1764V23.5764C19.1777 23.5764 19.5426 23.9631 19.5648 24.4481L19.9644 24.4298Z" fill="#9FCEEE" mask="url(#path-1-outside-1_128_5)"/>
</svg>
